<?xml version="1.0" encoding="UTF-8" standalone="no"?><svg xmlns="http://www.w3.org/2000/svg" xmlns:xlink="http://www.w3.org/1999/xlink" contentScriptType="application/ecmascript" contentStyleType="text/css" height="1125px" preserveAspectRatio="none" style="width:1435px;height:1125px;" version="1.1" viewBox="0 0 1435 1125" width="1435px" zoomAndPan="magnify"><defs><filter height="300%" id="fgz7d6bifblke" width="300%" x="-1" y="-1"><feGaussianBlur result="blurOut" stdDeviation="2.0"/><feColorMatrix in="blurOut" result="blurOut2" type="matrix" values="0 0 0 0 0 0 0 0 0 0 0 0 0 0 0 0 0 0 .4 0"/><feOffset dx="4.0" dy="4.0" in="blurOut2" result="blurOut3"/><feBlend in="SourceGraphic" in2="blurOut3" mode="normal"/></filter></defs><g><ellipse cx="649.5" cy="20" fill="#000000" filter="url(#fgz7d6bifblke)" rx="10" ry="10" style="stroke: none; stroke-width: 1.0;"/><rect fill="#FEFECE" filter="url(#fgz7d6bifblke)" height="33.9688" rx="12.5" ry="12.5" style="stroke: #A80036; stroke-width: 1.5;" width="226" x="536.5" y="50"/><text fill="#000000" font-family="sans-serif" font-size="12" lengthAdjust="spacingAndGlyphs" textLength="206" x="546.5" y="71.1387">Cell 1: User inputs directory path</text><path d="M867.5,108.3867 L867.5,116.9531 L847.5,120.9531 L867.5,124.9531 L867.5,133.5195 A0,0 0 0 0 867.5,133.5195 L1159.5,133.5195 A0,0 0 0 0 1159.5,133.5195 L1159.5,118.3867 L1149.5,108.3867 L867.5,108.3867 A0,0 0 0 0 867.5,108.3867 " fill="#FBFB77" filter="url(#fgz7d6bifblke)" style="stroke: #A80036; stroke-width: 1.0;"/><path d="M1149.5,108.3867 L1149.5,118.3867 L1159.5,118.3867 L1149.5,108.3867 " fill="#FBFB77" style="stroke: #A80036; stroke-width: 1.0;"/><text fill="#000000" font-family="sans-serif" font-size="13" lengthAdjust="spacingAndGlyphs" textLength="271" x="873.5" y="125.4536">- Data path is created based on user input</text><rect fill="#FEFECE" filter="url(#fgz7d6bifblke)" height="33.9688" rx="12.5" ry="12.5" style="stroke: #A80036; stroke-width: 1.5;" width="396" x="451.5" y="103.9688"/><text fill="#000000" font-family="sans-serif" font-size="12" lengthAdjust="spacingAndGlyphs" textLength="376" x="461.5" y="125.1074">Cell 2: get_data_files_directory function forms directory path</text><rect fill="#FEFECE" filter="url(#fgz7d6bifblke)" height="33.9688" rx="12.5" ry="12.5" style="stroke: #A80036; stroke-width: 1.5;" width="227" x="536" y="206.3398"/><text fill="#000000" font-family="sans-serif" font-size="12" lengthAdjust="spacingAndGlyphs" textLength="207" x="546" y="227.4785">Cell 2: Toggle on missing_metrics</text><polygon fill="#FEFECE" filter="url(#fgz7d6bifblke)" points="493,157.9375,806,157.9375,818,169.9375,806,181.9375,493,181.9375,481,169.9375,493,157.9375" style="stroke: #A80036; stroke-width: 1.5;"/><text fill="#000000" font-family="sans-serif" font-size="11" lengthAdjust="spacingAndGlyphs" textLength="20" x="653.5" y="192.1479">yes</text><text fill="#000000" font-family="sans-serif" font-size="11" lengthAdjust="spacingAndGlyphs" textLength="313" x="493" y="173.7456">Does user want to remove rows with missing metrics?</text><text fill="#000000" font-family="sans-serif" font-size="11" lengthAdjust="spacingAndGlyphs" textLength="14" x="818" y="167.3433">no</text><polygon fill="#FEFECE" filter="url(#fgz7d6bifblke)" points="649.5,260.3086,661.5,272.3086,649.5,284.3086,637.5,272.3086,649.5,260.3086" style="stroke: #A80036; stroke-width: 1.5;"/><rect fill="#FEFECE" filter="url(#fgz7d6bifblke)" height="33.9688" rx="12.5" ry="12.5" style="stroke: #A80036; stroke-width: 1.5;" width="174" x="562.5" y="352.7109"/><text fill="#000000" font-family="sans-serif" font-size="12" lengthAdjust="spacingAndGlyphs" textLength="154" x="572.5" y="373.8496">Cell 2: Toggle on interval</text><polygon fill="#FEFECE" filter="url(#fgz7d6bifblke)" points="536,304.3086,763,304.3086,775,316.3086,763,328.3086,536,328.3086,524,316.3086,536,304.3086" style="stroke: #A80036; stroke-width: 1.5;"/><text fill="#000000" font-family="sans-serif" font-size="11" lengthAdjust="spacingAndGlyphs" textLength="20" x="653.5" y="338.519">yes</text><text fill="#000000" font-family="sans-serif" font-size="11" lengthAdjust="spacingAndGlyphs" textLength="227" x="536" y="320.1167">Does user want to add interval column?</text><text fill="#000000" font-family="sans-serif" font-size="11" lengthAdjust="spacingAndGlyphs" textLength="14" x="775" y="313.7144">no</text><polygon fill="#FEFECE" filter="url(#fgz7d6bifblke)" points="649.5,406.6797,661.5,418.6797,649.5,430.6797,637.5,418.6797,649.5,406.6797" style="stroke: #A80036; stroke-width: 1.5;"/><rect fill="#FEFECE" filter="url(#fgz7d6bifblke)" height="33.9688" rx="12.5" ry="12.5" style="stroke: #A80036; stroke-width: 1.5;" width="403" x="448" y="499.082"/><text fill="#000000" font-family="sans-serif" font-size="12" lengthAdjust="spacingAndGlyphs" textLength="383" x="458" y="520.2207">Cell 3: User inputs start and end time for data preprocessing</text><polygon fill="#FEFECE" filter="url(#fgz7d6bifblke)" points="511,450.6797,788,450.6797,800,462.6797,788,474.6797,511,474.6797,499,462.6797,511,450.6797" style="stroke: #A80036; stroke-width: 1.5;"/><text fill="#000000" font-family="sans-serif" font-size="11" lengthAdjust="spacingAndGlyphs" textLength="20" x="653.5" y="484.8901">yes</text><text fill="#000000" font-family="sans-serif" font-size="11" lengthAdjust="spacingAndGlyphs" textLength="277" x="511" y="466.4878">Is either missing_metrics or interval toggled on?</text><text fill="#000000" font-family="sans-serif" font-size="11" lengthAdjust="spacingAndGlyphs" textLength="14" x="800" y="460.0854">no</text><polygon fill="#FEFECE" filter="url(#fgz7d6bifblke)" points="649.5,553.0508,661.5,565.0508,649.5,577.0508,637.5,565.0508,649.5,553.0508" style="stroke: #A80036; stroke-width: 1.5;"/><path d="M984,601.4688 L984,610.0352 L964,614.0352 L984,618.0352 L984,626.6016 A0,0 0 0 0 984,626.6016 L1423,626.6016 A0,0 0 0 0 1423,626.6016 L1423,611.4688 L1413,601.4688 L984,601.4688 A0,0 0 0 0 984,601.4688 " fill="#FBFB77" filter="url(#fgz7d6bifblke)" style="stroke: #A80036; stroke-width: 1.0;"/><path d="M1413,601.4688 L1413,611.4688 L1423,611.4688 L1413,601.4688 " fill="#FBFB77" style="stroke: #A80036; stroke-width: 1.0;"/><text fill="#000000" font-family="sans-serif" font-size="13" lengthAdjust="spacingAndGlyphs" textLength="418" x="990" y="618.5356">- These functions will only execute based on earlier user decisions</text><rect fill="#FEFECE" filter="url(#fgz7d6bifblke)" height="33.9688" rx="12.5" ry="12.5" style="stroke: #A80036; stroke-width: 1.5;" width="629" x="335" y="597.0508"/><text fill="#000000" font-family="sans-serif" font-size="12" lengthAdjust="spacingAndGlyphs" textLength="609" x="345" y="618.1895">Cell 4: Functions handle_missing_metrics and add_interval_column are prepared for potential use</text><polygon fill="#FEFECE" filter="url(#fgz7d6bifblke)" points="511,651.0195,788,651.0195,800,663.0195,788,675.0195,511,675.0195,499,663.0195,511,651.0195" style="stroke: #A80036; stroke-width: 1.5;"/><text fill="#000000" font-family="sans-serif" font-size="11" lengthAdjust="spacingAndGlyphs" textLength="277" x="511" y="666.8276">Is either missing_metrics or interval toggled on?</text><text fill="#000000" font-family="sans-serif" font-size="11" lengthAdjust="spacingAndGlyphs" textLength="20" x="479" y="660.4253">yes</text><text fill="#000000" font-family="sans-serif" font-size="11" lengthAdjust="spacingAndGlyphs" textLength="14" x="800" y="660.4253">no</text><rect fill="#FEFECE" filter="url(#fgz7d6bifblke)" height="33.9688" rx="12.5" ry="12.5" style="stroke: #A80036; stroke-width: 1.5;" width="538" x="172.25" y="685.0195"/><text fill="#000000" font-family="sans-serif" font-size="12" lengthAdjust="spacingAndGlyphs" textLength="518" x="182.25" y="706.1582">Cell 4: Functions handle_missing_metrics and/or add_interval_column are executed</text><rect fill="#FEFECE" filter="url(#fgz7d6bifblke)" height="33.9688" rx="12.5" ry="12.5" style="stroke: #A80036; stroke-width: 1.5;" width="255" x="730.25" y="685.0195"/><text fill="#000000" font-family="sans-serif" font-size="12" lengthAdjust="spacingAndGlyphs" textLength="235" x="740.25" y="706.1582">Cell 4: User inputs start and end time</text><polygon fill="#FEFECE" filter="url(#fgz7d6bifblke)" points="649.5,724.9883,661.5,736.9883,649.5,748.9883,637.5,736.9883,649.5,724.9883" style="stroke: #A80036; stroke-width: 1.5;"/><rect fill="#FEFECE" filter="url(#fgz7d6bifblke)" height="33.9688" rx="12.5" ry="12.5" style="stroke: #A80036; stroke-width: 1.5;" width="175" x="562" y="768.9883"/><text fill="#000000" font-family="sans-serif" font-size="12" lengthAdjust="spacingAndGlyphs" textLength="155" x="572" y="790.127">Cell 4: User selects units</text><rect fill="#FEFECE" filter="url(#fgz7d6bifblke)" height="33.9688" rx="12.5" ry="12.5" style="stroke: #A80036; stroke-width: 1.5;" width="392" x="453.5" y="822.957"/><text fill="#000000" font-family="sans-serif" font-size="12" lengthAdjust="spacingAndGlyphs" textLength="372" x="463.5" y="844.0957">Cell 5: User selects values, hosts, jobs, and return columns</text><rect fill="#FEFECE" filter="url(#fgz7d6bifblke)" height="33.9688" rx="12.5" ry="12.5" style="stroke: #A80036; stroke-width: 1.5;" width="1279" x="10" y="876.9258"/><text fill="#000000" font-family="sans-serif" font-size="12" lengthAdjust="spacingAndGlyphs" textLength="1259" x="20" y="898.0645">Cell 6: Functions get_timeseries_by_timestamp, get_timeseries_by_values_and_unit, get_timeseries_by_hosts, and get_timeseries_by_job_ids are executed based on user's decisions in the previous cells</text><rect fill="#FEFECE" filter="url(#fgz7d6bifblke)" height="33.9688" rx="12.5" ry="12.5" style="stroke: #A80036; stroke-width: 1.5;" width="277" x="511" y="930.8945"/><text fill="#000000" font-family="sans-serif" font-size="12" lengthAdjust="spacingAndGlyphs" textLength="257" x="521" y="952.0332">Cell 7: User selects statistics to compute</text><rect fill="#FEFECE" filter="url(#fgz7d6bifblke)" height="33.9688" rx="12.5" ry="12.5" style="stroke: #A80036; stroke-width: 1.5;" width="293" x="503" y="984.8633"/><text fill="#000000" font-family="sans-serif" font-size="12" lengthAdjust="spacingAndGlyphs" textLength="273" x="513" y="1006.002">Cell 8: get_stat function is prepared for use</text><rect fill="#FEFECE" filter="url(#fgz7d6bifblke)" height="33.9688" rx="12.5" ry="12.5" style="stroke: #A80036; stroke-width: 1.5;" width="234" x="532.5" y="1038.832"/><text fill="#000000" font-family="sans-serif" font-size="12" lengthAdjust="spacingAndGlyphs" textLength="214" x="542.5" y="1059.9707">Cell 9: Statistical data is displayed</text><ellipse cx="649.5" cy="1103.8008" fill="#FFFFFF" filter="url(#fgz7d6bifblke)" rx="11" ry="11" style="stroke: #000000; stroke-width: 1.0;"/><ellipse cx="649.5" cy="1103.8008" fill="#000000" rx="6" ry="6" style="stroke: #7F7F7F; stroke-width: 1.0;"/><line style="stroke: #A80036; stroke-width: 1.5;" x1="649.5" x2="649.5" y1="30" y2="50"/><polygon fill="#A80036" points="645.5,40,649.5,50,653.5,40,649.5,44" style="stroke: #A80036; stroke-width: 1.0;"/><line style="stroke: #A80036; stroke-width: 1.5;" x1="649.5" x2="649.5" y1="83.9688" y2="103.9688"/><polygon fill="#A80036" points="645.5,93.9688,649.5,103.9688,653.5,93.9688,649.5,97.9688" style="stroke: #A80036; stroke-width: 1.0;"/><line style="stroke: #A80036; stroke-width: 1.5;" x1="649.5" x2="649.5" y1="181.9375" y2="206.3398"/><polygon fill="#A80036" points="645.5,196.3398,649.5,206.3398,653.5,196.3398,649.5,200.3398" style="stroke: #A80036; stroke-width: 1.0;"/><line style="stroke: #A80036; stroke-width: 1.5;" x1="818" x2="830" y1="169.9375" y2="169.9375"/><polygon fill="#A80036" points="826,213.3242,830,223.3242,834,213.3242,830,217.3242" style="stroke: #A80036; stroke-width: 1.5;"/><line style="stroke: #A80036; stroke-width: 1.5;" x1="830" x2="830" y1="169.9375" y2="272.3086"/><line style="stroke: #A80036; stroke-width: 1.5;" x1="830" x2="661.5" y1="272.3086" y2="272.3086"/><polygon fill="#A80036" points="671.5,268.3086,661.5,272.3086,671.5,276.3086,667.5,272.3086" style="stroke: #A80036; stroke-width: 1.0;"/><line style="stroke: #A80036; stroke-width: 1.5;" x1="649.5" x2="649.5" y1="240.3086" y2="260.3086"/><polygon fill="#A80036" points="645.5,250.3086,649.5,260.3086,653.5,250.3086,649.5,254.3086" style="stroke: #A80036; stroke-width: 1.0;"/><line style="stroke: #A80036; stroke-width: 1.5;" x1="649.5" x2="649.5" y1="137.9375" y2="157.9375"/><polygon fill="#A80036" points="645.5,147.9375,649.5,157.9375,653.5,147.9375,649.5,151.9375" style="stroke: #A80036; stroke-width: 1.0;"/><line style="stroke: #A80036; stroke-width: 1.5;" x1="649.5" x2="649.5" y1="328.3086" y2="352.7109"/><polygon fill="#A80036" points="645.5,342.7109,649.5,352.7109,653.5,342.7109,649.5,346.7109" style="stroke: #A80036; stroke-width: 1.0;"/><line style="stroke: #A80036; stroke-width: 1.5;" x1="775" x2="787" y1="316.3086" y2="316.3086"/><polygon fill="#A80036" points="783,359.6953,787,369.6953,791,359.6953,787,363.6953" style="stroke: #A80036; stroke-width: 1.5;"/><line style="stroke: #A80036; stroke-width: 1.5;" x1="787" x2="787" y1="316.3086" y2="418.6797"/><line style="stroke: #A80036; stroke-width: 1.5;" x1="787" x2="661.5" y1="418.6797" y2="418.6797"/><polygon fill="#A80036" points="671.5,414.6797,661.5,418.6797,671.5,422.6797,667.5,418.6797" style="stroke: #A80036; stroke-width: 1.0;"/><line style="stroke: #A80036; stroke-width: 1.5;" x1="649.5" x2="649.5" y1="386.6797" y2="406.6797"/><polygon fill="#A80036" points="645.5,396.6797,649.5,406.6797,653.5,396.6797,649.5,400.6797" style="stroke: #A80036; stroke-width: 1.0;"/><line style="stroke: #A80036; stroke-width: 1.5;" x1="649.5" x2="649.5" y1="284.3086" y2="304.3086"/><polygon fill="#A80036" points="645.5,294.3086,649.5,304.3086,653.5,294.3086,649.5,298.3086" style="stroke: #A80036; stroke-width: 1.0;"/><line style="stroke: #A80036; stroke-width: 1.5;" x1="649.5" x2="649.5" y1="474.6797" y2="499.082"/><polygon fill="#A80036" points="645.5,489.082,649.5,499.082,653.5,489.082,649.5,493.082" style="stroke: #A80036; stroke-width: 1.0;"/><line style="stroke: #A80036; stroke-width: 1.5;" x1="800" x2="861" y1="462.6797" y2="462.6797"/><polygon fill="#A80036" points="857,506.0664,861,516.0664,865,506.0664,861,510.0664" style="stroke: #A80036; stroke-width: 1.5;"/><line style="stroke: #A80036; stroke-width: 1.5;" x1="861" x2="861" y1="462.6797" y2="565.0508"/><line style="stroke: #A80036; stroke-width: 1.5;" x1="861" x2="661.5" y1="565.0508" y2="565.0508"/><polygon fill="#A80036" points="671.5,561.0508,661.5,565.0508,671.5,569.0508,667.5,565.0508" style="stroke: #A80036; stroke-width: 1.0;"/><line style="stroke: #A80036; stroke-width: 1.5;" x1="649.5" x2="649.5" y1="533.0508" y2="553.0508"/><polygon fill="#A80036" points="645.5,543.0508,649.5,553.0508,653.5,543.0508,649.5,547.0508" style="stroke: #A80036; stroke-width: 1.0;"/><line style="stroke: #A80036; stroke-width: 1.5;" x1="649.5" x2="649.5" y1="430.6797" y2="450.6797"/><polygon fill="#A80036" points="645.5,440.6797,649.5,450.6797,653.5,440.6797,649.5,444.6797" style="stroke: #A80036; stroke-width: 1.0;"/><line style="stroke: #A80036; stroke-width: 1.5;" x1="649.5" x2="649.5" y1="577.0508" y2="597.0508"/><polygon fill="#A80036" points="645.5,587.0508,649.5,597.0508,653.5,587.0508,649.5,591.0508" style="stroke: #A80036; stroke-width: 1.0;"/><line style="stroke: #A80036; stroke-width: 1.5;" x1="499" x2="441.25" y1="663.0195" y2="663.0195"/><line style="stroke: #A80036; stroke-width: 1.5;" x1="441.25" x2="441.25" y1="663.0195" y2="685.0195"/><polygon fill="#A80036" points="437.25,675.0195,441.25,685.0195,445.25,675.0195,441.25,679.0195" style="stroke: #A80036; stroke-width: 1.0;"/><line style="stroke: #A80036; stroke-width: 1.5;" x1="800" x2="857.75" y1="663.0195" y2="663.0195"/><line style="stroke: #A80036; stroke-width: 1.5;" x1="857.75" x2="857.75" y1="663.0195" y2="685.0195"/><polygon fill="#A80036" points="853.75,675.0195,857.75,685.0195,861.75,675.0195,857.75,679.0195" style="stroke: #A80036; stroke-width: 1.0;"/><line style="stroke: #A80036; stroke-width: 1.5;" x1="441.25" x2="441.25" y1="718.9883" y2="736.9883"/><line style="stroke: #A80036; stroke-width: 1.5;" x1="441.25" x2="637.5" y1="736.9883" y2="736.9883"/><polygon fill="#A80036" points="627.5,732.9883,637.5,736.9883,627.5,740.9883,631.5,736.9883" style="stroke: #A80036; stroke-width: 1.0;"/><line style="stroke: #A80036; stroke-width: 1.5;" x1="857.75" x2="857.75" y1="718.9883" y2="736.9883"/><line style="stroke: #A80036; stroke-width: 1.5;" x1="857.75" x2="661.5" y1="736.9883" y2="736.9883"/><polygon fill="#A80036" points="671.5,732.9883,661.5,736.9883,671.5,740.9883,667.5,736.9883" style="stroke: #A80036; stroke-width: 1.0;"/><line style="stroke: #A80036; stroke-width: 1.5;" x1="649.5" x2="649.5" y1="631.0195" y2="651.0195"/><polygon fill="#A80036" points="645.5,641.0195,649.5,651.0195,653.5,641.0195,649.5,645.0195" style="stroke: #A80036; stroke-width: 1.0;"/><line style="stroke: #A80036; stroke-width: 1.5;" x1="649.5" x2="649.5" y1="748.9883" y2="768.9883"/><polygon fill="#A80036" points="645.5,758.9883,649.5,768.9883,653.5,758.9883,649.5,762.9883" style="stroke: #A80036; stroke-width: 1.0;"/><line style="stroke: #A80036; stroke-width: 1.5;" x1="649.5" x2="649.5" y1="802.957" y2="822.957"/><polygon fill="#A80036" points="645.5,812.957,649.5,822.957,653.5,812.957,649.5,816.957" style="stroke: #A80036; stroke-width: 1.0;"/><line style="stroke: #A80036; stroke-width: 1.5;" x1="649.5" x2="649.5" y1="856.9258" y2="876.9258"/><polygon fill="#A80036" points="645.5,866.9258,649.5,876.9258,653.5,866.9258,649.5,870.9258" style="stroke: #A80036; stroke-width: 1.0;"/><line style="stroke: #A80036; stroke-width: 1.5;" x1="649.5" x2="649.5" y1="910.8945" y2="930.8945"/><polygon fill="#A80036" points="645.5,920.8945,649.5,930.8945,653.5,920.8945,649.5,924.8945" style="stroke: #A80036; stroke-width: 1.0;"/><line style="stroke: #A80036; stroke-width: 1.5;" x1="649.5" x2="649.5" y1="964.8633" y2="984.8633"/><polygon fill="#A80036" points="645.5,974.8633,649.5,984.8633,653.5,974.8633,649.5,978.8633" style="stroke: #A80036; stroke-width: 1.0;"/><line style="stroke: #A80036; stroke-width: 1.5;" x1="649.5" x2="649.5" y1="1018.832" y2="1038.832"/><polygon fill="#A80036" points="645.5,1028.832,649.5,1038.832,653.5,1028.832,649.5,1032.832" style="stroke: #A80036; stroke-width: 1.0;"/><line style="stroke: #A80036; stroke-width: 1.5;" x1="649.5" x2="649.5" y1="1072.8008" y2="1092.8008"/><polygon fill="#A80036" points="645.5,1082.8008,649.5,1092.8008,653.5,1082.8008,649.5,1086.8008" style="stroke: #A80036; stroke-width: 1.0;"/><!--MD5=[1bf0ff3b368542979a2694e43e5dfadb]
@startuml
start

:Cell 1: User inputs directory path;

:Cell 2: get_data_files_directory function forms directory path;
note right
    - Data path is created based on user input
end note
if (Does user want to remove rows with missing metrics?) then (yes)
  :Cell 2: Toggle on missing_metrics;
else (no)
endif

if (Does user want to add interval column?) then (yes)
  :Cell 2: Toggle on interval;
else (no)
endif

if (Is either missing_metrics or interval toggled on?) then (yes)
  :Cell 3: User inputs start and end time for data preprocessing;
else (no)
endif

:Cell 4: Functions handle_missing_metrics and add_interval_column are prepared for potential use;
note right
    - These functions will only execute based on earlier user decisions
end note
if (Is either missing_metrics or interval toggled on?) then (yes)
  :Cell 4: Functions handle_missing_metrics and/or add_interval_column are executed;
else (no)
  :Cell 4: User inputs start and end time;
endif

:Cell 4: User selects units;

:Cell 5: User selects values, hosts, jobs, and return columns;

:Cell 6: Functions get_timeseries_by_timestamp, get_timeseries_by_values_and_unit, get_timeseries_by_hosts, and get_timeseries_by_job_ids are executed based on user's decisions in the previous cells;

:Cell 7: User selects statistics to compute;

:Cell 8: get_stat function is prepared for use;

:Cell 9: Statistical data is displayed;

stop
@enduml

PlantUML version 1.2020.08(Sun Apr 26 14:08:22 UTC 2020)
(GPL source distribution)
Java Runtime: OpenJDK Runtime Environment
JVM: OpenJDK 64-Bit Server VM
Java Version: 1.8.0_252-heroku-b09
Operating System: Linux
Default Encoding: UTF-8
Language: en
Country: US
--></g></svg>