<?xml version="1.0" encoding="UTF-8" standalone="no"?><svg xmlns="http://www.w3.org/2000/svg" xmlns:xlink="http://www.w3.org/1999/xlink" contentScriptType="application/ecmascript" contentStyleType="text/css" height="792px" preserveAspectRatio="none" style="width:625px;height:792px;" version="1.1" viewBox="0 0 625 792" width="625px" zoomAndPan="magnify"><defs><filter height="300%" id="f44e1baevvg89" width="300%" x="-1" y="-1"><feGaussianBlur result="blurOut" stdDeviation="2.0"/><feColorMatrix in="blurOut" result="blurOut2" type="matrix" values="0 0 0 0 0 0 0 0 0 0 0 0 0 0 0 0 0 0 .4 0"/><feOffset dx="4.0" dy="4.0" in="blurOut2" result="blurOut3"/><feBlend in="SourceGraphic" in2="blurOut3" mode="normal"/></filter></defs><g><text fill="#000000" font-family="sans-serif" font-size="18" lengthAdjust="spacingAndGlyphs" textLength="193" x="215.25" y="26.708">User Decision Process</text><ellipse cx="303.75" cy="40.9531" fill="#000000" filter="url(#f44e1baevvg89)" rx="10" ry="10" style="stroke: none; stroke-width: 1.0;"/><rect fill="#FEFECE" filter="url(#f44e1baevvg89)" height="33.9688" rx="12.5" ry="12.5" style="stroke: #A80036; stroke-width: 1.5;" width="226" x="190.75" y="70.9531"/><text fill="#000000" font-family="sans-serif" font-size="12" lengthAdjust="spacingAndGlyphs" textLength="206" x="200.75" y="92.0918">Provide data files directory path?</text><polygon fill="#FEFECE" filter="url(#f44e1baevvg89)" points="237.25,124.9219,370.25,124.9219,382.25,136.9219,370.25,148.9219,237.25,148.9219,225.25,136.9219,237.25,124.9219" style="stroke: #A80036; stroke-width: 1.5;"/><text fill="#000000" font-family="sans-serif" font-size="11" lengthAdjust="spacingAndGlyphs" textLength="133" x="237.25" y="140.73">Preprocessing chosen?</text><text fill="#000000" font-family="sans-serif" font-size="11" lengthAdjust="spacingAndGlyphs" textLength="20" x="205.25" y="134.3276">yes</text><text fill="#000000" font-family="sans-serif" font-size="11" lengthAdjust="spacingAndGlyphs" textLength="14" x="382.25" y="134.3276">no</text><rect fill="#FEFECE" filter="url(#f44e1baevvg89)" height="33.9688" rx="12.5" ry="12.5" style="stroke: #A80036; stroke-width: 1.5;" width="253" x="10" y="158.9219"/><text fill="#000000" font-family="sans-serif" font-size="12" lengthAdjust="spacingAndGlyphs" textLength="233" x="20" y="180.0605">Enter timestamp window for dataset?</text><rect fill="#FEFECE" filter="url(#f44e1baevvg89)" height="33.9688" rx="12.5" ry="12.5" style="stroke: #A80036; stroke-width: 1.5;" width="237" x="18" y="261.293"/><text fill="#000000" font-family="sans-serif" font-size="12" lengthAdjust="spacingAndGlyphs" textLength="217" x="28" y="282.4316">Select data preprocessing options</text><rect fill="#FEFECE" filter="url(#f44e1baevvg89)" height="33.9688" rx="12.5" ry="12.5" style="stroke: #A80036; stroke-width: 1.5;" width="124" x="74.5" y="315.2617"/><text fill="#000000" font-family="sans-serif" font-size="12" lengthAdjust="spacingAndGlyphs" textLength="104" x="84.5" y="336.4004">Preprocess data</text><polygon fill="#FEFECE" filter="url(#f44e1baevvg89)" points="52,212.8906,221,212.8906,233,224.8906,221,236.8906,52,236.8906,40,224.8906,52,212.8906" style="stroke: #A80036; stroke-width: 1.5;"/><text fill="#000000" font-family="sans-serif" font-size="11" lengthAdjust="spacingAndGlyphs" textLength="20" x="140.5" y="247.1011">yes</text><text fill="#000000" font-family="sans-serif" font-size="11" lengthAdjust="spacingAndGlyphs" textLength="169" x="52" y="228.6987">Timestamp window provided?</text><text fill="#000000" font-family="sans-serif" font-size="11" lengthAdjust="spacingAndGlyphs" textLength="14" x="233" y="222.2964">no</text><ellipse cx="269" cy="224.8906" fill="#FFFFFF" filter="url(#f44e1baevvg89)" rx="11" ry="11" style="stroke: #000000; stroke-width: 1.0;"/><ellipse cx="269" cy="224.8906" fill="#000000" rx="6" ry="6" style="stroke: #7F7F7F; stroke-width: 1.0;"/><rect fill="#FEFECE" filter="url(#f44e1baevvg89)" height="33.9688" rx="12.5" ry="12.5" style="stroke: #A80036; stroke-width: 1.5;" width="254" x="344" y="158.9219"/><text fill="#000000" font-family="sans-serif" font-size="12" lengthAdjust="spacingAndGlyphs" textLength="234" x="354" y="180.0605">Enter timestamp window for analysis?</text><rect fill="#FEFECE" filter="url(#f44e1baevvg89)" height="33.9688" rx="12.5" ry="12.5" style="stroke: #A80036; stroke-width: 1.5;" width="167" x="387.5" y="261.293"/><text fill="#000000" font-family="sans-serif" font-size="12" lengthAdjust="spacingAndGlyphs" textLength="147" x="397.5" y="282.4316">Select units to analyze?</text><rect fill="#FEFECE" filter="url(#f44e1baevvg89)" height="33.9688" rx="12.5" ry="12.5" style="stroke: #A80036; stroke-width: 1.5;" width="99" x="421.5" y="315.2617"/><text fill="#000000" font-family="sans-serif" font-size="12" lengthAdjust="spacingAndGlyphs" textLength="79" x="431.5" y="336.4004">Analyze data</text><polygon fill="#FEFECE" filter="url(#f44e1baevvg89)" points="386.5,212.8906,555.5,212.8906,567.5,224.8906,555.5,236.8906,386.5,236.8906,374.5,224.8906,386.5,212.8906" style="stroke: #A80036; stroke-width: 1.5;"/><text fill="#000000" font-family="sans-serif" font-size="11" lengthAdjust="spacingAndGlyphs" textLength="20" x="475" y="247.1011">yes</text><text fill="#000000" font-family="sans-serif" font-size="11" lengthAdjust="spacingAndGlyphs" textLength="169" x="386.5" y="228.6987">Timestamp window provided?</text><text fill="#000000" font-family="sans-serif" font-size="11" lengthAdjust="spacingAndGlyphs" textLength="14" x="567.5" y="222.2964">no</text><ellipse cx="603.5" cy="224.8906" fill="#FFFFFF" filter="url(#f44e1baevvg89)" rx="11" ry="11" style="stroke: #000000; stroke-width: 1.0;"/><ellipse cx="603.5" cy="224.8906" fill="#000000" rx="6" ry="6" style="stroke: #7F7F7F; stroke-width: 1.0;"/><polygon fill="#FEFECE" filter="url(#f44e1baevvg89)" points="303.75,359.2305,315.75,371.2305,303.75,383.2305,291.75,371.2305,303.75,359.2305" style="stroke: #A80036; stroke-width: 1.5;"/><rect fill="#FEFECE" filter="url(#f44e1baevvg89)" height="33.9688" rx="12.5" ry="12.5" style="stroke: #A80036; stroke-width: 1.5;" width="245" x="181.25" y="403.2305"/><text fill="#000000" font-family="sans-serif" font-size="12" lengthAdjust="spacingAndGlyphs" textLength="225" x="191.25" y="424.3691">Select more values to filter data by?</text><rect fill="#FEFECE" filter="url(#f44e1baevvg89)" height="33.9688" rx="12.5" ry="12.5" style="stroke: #A80036; stroke-width: 1.5;" width="204" x="201.75" y="505.6016"/><text fill="#000000" font-family="sans-serif" font-size="12" lengthAdjust="spacingAndGlyphs" textLength="184" x="211.75" y="526.7402">Filter data by selected values</text><polygon fill="#FEFECE" filter="url(#f44e1baevvg89)" points="240.25,457.1992,367.25,457.1992,379.25,469.1992,367.25,481.1992,240.25,481.1992,228.25,469.1992,240.25,457.1992" style="stroke: #A80036; stroke-width: 1.5;"/><text fill="#000000" font-family="sans-serif" font-size="11" lengthAdjust="spacingAndGlyphs" textLength="20" x="307.75" y="491.4097">yes</text><text fill="#000000" font-family="sans-serif" font-size="11" lengthAdjust="spacingAndGlyphs" textLength="127" x="240.25" y="473.0073">More values selected?</text><polygon fill="#FEFECE" filter="url(#f44e1baevvg89)" points="303.75,559.5703,315.75,571.5703,303.75,583.5703,291.75,571.5703,303.75,559.5703" style="stroke: #A80036; stroke-width: 1.5;"/><rect fill="#FEFECE" filter="url(#f44e1baevvg89)" height="33.9688" rx="12.5" ry="12.5" style="stroke: #A80036; stroke-width: 1.5;" width="247" x="180.25" y="603.5703"/><text fill="#000000" font-family="sans-serif" font-size="12" lengthAdjust="spacingAndGlyphs" textLength="227" x="190.25" y="624.709">Run statistical analyses on dataset?</text><rect fill="#FEFECE" filter="url(#f44e1baevvg89)" height="33.9688" rx="12.5" ry="12.5" style="stroke: #A80036; stroke-width: 1.5;" width="188" x="209.75" y="705.9414"/><text fill="#000000" font-family="sans-serif" font-size="12" lengthAdjust="spacingAndGlyphs" textLength="168" x="219.75" y="727.0801">Perform statistical analysis</text><polygon fill="#FEFECE" filter="url(#f44e1baevvg89)" points="235.25,657.5391,372.25,657.5391,384.25,669.5391,372.25,681.5391,235.25,681.5391,223.25,669.5391,235.25,657.5391" style="stroke: #A80036; stroke-width: 1.5;"/><text fill="#000000" font-family="sans-serif" font-size="11" lengthAdjust="spacingAndGlyphs" textLength="20" x="307.75" y="691.7495">yes</text><text fill="#000000" font-family="sans-serif" font-size="11" lengthAdjust="spacingAndGlyphs" textLength="137" x="235.25" y="673.3472">Run statistical analysis?</text><text fill="#000000" font-family="sans-serif" font-size="11" lengthAdjust="spacingAndGlyphs" textLength="14" x="384.25" y="666.9448">no</text><ellipse cx="420.25" cy="669.5391" fill="#FFFFFF" filter="url(#f44e1baevvg89)" rx="11" ry="11" style="stroke: #000000; stroke-width: 1.0;"/><ellipse cx="420.25" cy="669.5391" fill="#000000" rx="6" ry="6" style="stroke: #7F7F7F; stroke-width: 1.0;"/><ellipse cx="303.75" cy="770.9102" fill="#FFFFFF" filter="url(#f44e1baevvg89)" rx="11" ry="11" style="stroke: #000000; stroke-width: 1.0;"/><ellipse cx="303.75" cy="770.9102" fill="#000000" rx="6" ry="6" style="stroke: #7F7F7F; stroke-width: 1.0;"/><line style="stroke: #A80036; stroke-width: 1.5;" x1="303.75" x2="303.75" y1="50.9531" y2="70.9531"/><polygon fill="#A80036" points="299.75,60.9531,303.75,70.9531,307.75,60.9531,303.75,64.9531" style="stroke: #A80036; stroke-width: 1.0;"/><line style="stroke: #A80036; stroke-width: 1.5;" x1="136.5" x2="136.5" y1="295.2617" y2="315.2617"/><polygon fill="#A80036" points="132.5,305.2617,136.5,315.2617,140.5,305.2617,136.5,309.2617" style="stroke: #A80036; stroke-width: 1.0;"/><line style="stroke: #A80036; stroke-width: 1.5;" x1="136.5" x2="136.5" y1="236.8906" y2="261.293"/><polygon fill="#A80036" points="132.5,251.293,136.5,261.293,140.5,251.293,136.5,255.293" style="stroke: #A80036; stroke-width: 1.0;"/><line style="stroke: #A80036; stroke-width: 1.5;" x1="233" x2="258" y1="224.8906" y2="224.8906"/><polygon fill="#A80036" points="248,220.8906,258,224.8906,248,228.8906,252,224.8906" style="stroke: #A80036; stroke-width: 1.0;"/><line style="stroke: #A80036; stroke-width: 1.5;" x1="136.5" x2="136.5" y1="349.2305" y2="371.2305"/><line style="stroke: #A80036; stroke-width: 1.5;" x1="136.5" x2="291.75" y1="371.2305" y2="371.2305"/><polygon fill="#A80036" points="281.75,367.2305,291.75,371.2305,281.75,375.2305,285.75,371.2305" style="stroke: #A80036; stroke-width: 1.0;"/><line style="stroke: #A80036; stroke-width: 1.5;" x1="136.5" x2="136.5" y1="192.8906" y2="212.8906"/><polygon fill="#A80036" points="132.5,202.8906,136.5,212.8906,140.5,202.8906,136.5,206.8906" style="stroke: #A80036; stroke-width: 1.0;"/><line style="stroke: #A80036; stroke-width: 1.5;" x1="471" x2="471" y1="295.2617" y2="315.2617"/><polygon fill="#A80036" points="467,305.2617,471,315.2617,475,305.2617,471,309.2617" style="stroke: #A80036; stroke-width: 1.0;"/><line style="stroke: #A80036; stroke-width: 1.5;" x1="471" x2="471" y1="236.8906" y2="261.293"/><polygon fill="#A80036" points="467,251.293,471,261.293,475,251.293,471,255.293" style="stroke: #A80036; stroke-width: 1.0;"/><line style="stroke: #A80036; stroke-width: 1.5;" x1="567.5" x2="592.5" y1="224.8906" y2="224.8906"/><polygon fill="#A80036" points="582.5,220.8906,592.5,224.8906,582.5,228.8906,586.5,224.8906" style="stroke: #A80036; stroke-width: 1.0;"/><line style="stroke: #A80036; stroke-width: 1.5;" x1="471" x2="471" y1="349.2305" y2="371.2305"/><line style="stroke: #A80036; stroke-width: 1.5;" x1="471" x2="315.75" y1="371.2305" y2="371.2305"/><polygon fill="#A80036" points="325.75,367.2305,315.75,371.2305,325.75,375.2305,321.75,371.2305" style="stroke: #A80036; stroke-width: 1.0;"/><line style="stroke: #A80036; stroke-width: 1.5;" x1="471" x2="471" y1="192.8906" y2="212.8906"/><polygon fill="#A80036" points="467,202.8906,471,212.8906,475,202.8906,471,206.8906" style="stroke: #A80036; stroke-width: 1.0;"/><line style="stroke: #A80036; stroke-width: 1.5;" x1="225.25" x2="136.5" y1="136.9219" y2="136.9219"/><line style="stroke: #A80036; stroke-width: 1.5;" x1="136.5" x2="136.5" y1="136.9219" y2="158.9219"/><polygon fill="#A80036" points="132.5,148.9219,136.5,158.9219,140.5,148.9219,136.5,152.9219" style="stroke: #A80036; stroke-width: 1.0;"/><line style="stroke: #A80036; stroke-width: 1.5;" x1="382.25" x2="471" y1="136.9219" y2="136.9219"/><line style="stroke: #A80036; stroke-width: 1.5;" x1="471" x2="471" y1="136.9219" y2="158.9219"/><polygon fill="#A80036" points="467,148.9219,471,158.9219,475,148.9219,471,152.9219" style="stroke: #A80036; stroke-width: 1.0;"/><line style="stroke: #A80036; stroke-width: 1.5;" x1="303.75" x2="303.75" y1="104.9219" y2="124.9219"/><polygon fill="#A80036" points="299.75,114.9219,303.75,124.9219,307.75,114.9219,303.75,118.9219" style="stroke: #A80036; stroke-width: 1.0;"/><line style="stroke: #A80036; stroke-width: 1.5;" x1="303.75" x2="303.75" y1="383.2305" y2="403.2305"/><polygon fill="#A80036" points="299.75,393.2305,303.75,403.2305,307.75,393.2305,303.75,397.2305" style="stroke: #A80036; stroke-width: 1.0;"/><line style="stroke: #A80036; stroke-width: 1.5;" x1="303.75" x2="303.75" y1="481.1992" y2="505.6016"/><polygon fill="#A80036" points="299.75,495.6016,303.75,505.6016,307.75,495.6016,303.75,499.6016" style="stroke: #A80036; stroke-width: 1.0;"/><line style="stroke: #A80036; stroke-width: 1.5;" x1="379.25" x2="415.75" y1="469.1992" y2="469.1992"/><polygon fill="#A80036" points="411.75,512.5859,415.75,522.5859,419.75,512.5859,415.75,516.5859" style="stroke: #A80036; stroke-width: 1.5;"/><line style="stroke: #A80036; stroke-width: 1.5;" x1="415.75" x2="415.75" y1="469.1992" y2="571.5703"/><line style="stroke: #A80036; stroke-width: 1.5;" x1="415.75" x2="315.75" y1="571.5703" y2="571.5703"/><polygon fill="#A80036" points="325.75,567.5703,315.75,571.5703,325.75,575.5703,321.75,571.5703" style="stroke: #A80036; stroke-width: 1.0;"/><line style="stroke: #A80036; stroke-width: 1.5;" x1="303.75" x2="303.75" y1="539.5703" y2="559.5703"/><polygon fill="#A80036" points="299.75,549.5703,303.75,559.5703,307.75,549.5703,303.75,553.5703" style="stroke: #A80036; stroke-width: 1.0;"/><line style="stroke: #A80036; stroke-width: 1.5;" x1="303.75" x2="303.75" y1="437.1992" y2="457.1992"/><polygon fill="#A80036" points="299.75,447.1992,303.75,457.1992,307.75,447.1992,303.75,451.1992" style="stroke: #A80036; stroke-width: 1.0;"/><line style="stroke: #A80036; stroke-width: 1.5;" x1="303.75" x2="303.75" y1="583.5703" y2="603.5703"/><polygon fill="#A80036" points="299.75,593.5703,303.75,603.5703,307.75,593.5703,303.75,597.5703" style="stroke: #A80036; stroke-width: 1.0;"/><line style="stroke: #A80036; stroke-width: 1.5;" x1="303.75" x2="303.75" y1="681.5391" y2="705.9414"/><polygon fill="#A80036" points="299.75,695.9414,303.75,705.9414,307.75,695.9414,303.75,699.9414" style="stroke: #A80036; stroke-width: 1.0;"/><line style="stroke: #A80036; stroke-width: 1.5;" x1="384.25" x2="409.25" y1="669.5391" y2="669.5391"/><polygon fill="#A80036" points="399.25,665.5391,409.25,669.5391,399.25,673.5391,403.25,669.5391" style="stroke: #A80036; stroke-width: 1.0;"/><line style="stroke: #A80036; stroke-width: 1.5;" x1="303.75" x2="303.75" y1="739.9102" y2="759.9102"/><polygon fill="#A80036" points="299.75,749.9102,303.75,759.9102,307.75,749.9102,303.75,753.9102" style="stroke: #A80036; stroke-width: 1.0;"/><line style="stroke: #A80036; stroke-width: 1.5;" x1="303.75" x2="303.75" y1="637.5391" y2="657.5391"/><polygon fill="#A80036" points="299.75,647.5391,303.75,657.5391,307.75,647.5391,303.75,651.5391" style="stroke: #A80036; stroke-width: 1.0;"/><!--MD5=[e90c7e3505d0396c45360c1d8338fba3]
@startuml
title User Decision Process

start

:Provide data files directory path?;
if (Preprocessing chosen?) then (yes)
  :Enter timestamp window for dataset?;
  if (Timestamp window provided?) then (yes)
    :Select data preprocessing options;
    :Preprocess data;
  else (no)
    stop
  endif
else (no)
  :Enter timestamp window for analysis?;
  if (Timestamp window provided?) then (yes)
    :Select units to analyze?;
    :Analyze data;
  else (no)
    stop
  endif
endif

:Select more values to filter data by?;
if (More values selected?) then (yes)
  :Filter data by selected values;
endif

:Run statistical analyses on dataset?;
if (Run statistical analysis?) then (yes)
  :Perform statistical analysis;
else (no)
  stop
endif

stop
@enduml

PlantUML version 1.2020.08(Sun Apr 26 14:08:22 UTC 2020)
(GPL source distribution)
Java Runtime: OpenJDK Runtime Environment
JVM: OpenJDK 64-Bit Server VM
Java Version: 1.8.0_252-heroku-b09
Operating System: Linux
Default Encoding: UTF-8
Language: en
Country: US
--></g></svg>