<?xml version="1.0" encoding="UTF-8" standalone="no"?><svg xmlns="http://www.w3.org/2000/svg" xmlns:xlink="http://www.w3.org/1999/xlink" contentScriptType="application/ecmascript" contentStyleType="text/css" height="926px" preserveAspectRatio="none" style="width:701px;height:926px;" version="1.1" viewBox="0 0 701 926" width="701px" zoomAndPan="magnify"><defs><filter height="300%" id="f1tw2eox0bz2wf" width="300%" x="-1" y="-1"><feGaussianBlur result="blurOut" stdDeviation="2.0"/><feColorMatrix in="blurOut" result="blurOut2" type="matrix" values="0 0 0 0 0 0 0 0 0 0 0 0 0 0 0 0 0 0 .4 0"/><feOffset dx="4.0" dy="4.0" in="blurOut2" result="blurOut3"/><feBlend in="SourceGraphic" in2="blurOut3" mode="normal"/></filter></defs><g><ellipse cx="300.5" cy="20" fill="#000000" filter="url(#f1tw2eox0bz2wf)" rx="10" ry="10" style="stroke: none; stroke-width: 1.0;"/><rect fill="#FEFECE" filter="url(#f1tw2eox0bz2wf)" height="33.9688" rx="12.5" ry="12.5" style="stroke: #A80036; stroke-width: 1.5;" width="81" x="260" y="50"/><text fill="#000000" font-family="sans-serif" font-size="12" lengthAdjust="spacingAndGlyphs" textLength="61" x="270" y="71.1387">Run cell 1</text><rect fill="#FEFECE" filter="url(#f1tw2eox0bz2wf)" height="33.9688" rx="12.5" ry="12.5" style="stroke: #A80036; stroke-width: 1.5;" width="242" x="179.5" y="103.9688"/><text fill="#000000" font-family="sans-serif" font-size="12" lengthAdjust="spacingAndGlyphs" textLength="222" x="189.5" y="125.1074">Provide directory path in 'Path' field</text><rect fill="#FEFECE" filter="url(#f1tw2eox0bz2wf)" height="33.9688" rx="12.5" ry="12.5" style="stroke: #A80036; stroke-width: 1.5;" width="81" x="260" y="157.9375"/><text fill="#000000" font-family="sans-serif" font-size="12" lengthAdjust="spacingAndGlyphs" textLength="61" x="270" y="179.0762">Run cell 2</text><polygon fill="#FEFECE" filter="url(#f1tw2eox0bz2wf)" points="218.5,211.9063,382.5,211.9063,394.5,223.9063,382.5,235.9063,218.5,235.9063,206.5,223.9063,218.5,211.9063" style="stroke: #A80036; stroke-width: 1.5;"/><text fill="#000000" font-family="sans-serif" font-size="11" lengthAdjust="spacingAndGlyphs" textLength="164" x="218.5" y="227.7144">Data preprocessing needed?</text><text fill="#000000" font-family="sans-serif" font-size="11" lengthAdjust="spacingAndGlyphs" textLength="20" x="186.5" y="221.312">yes</text><text fill="#000000" font-family="sans-serif" font-size="11" lengthAdjust="spacingAndGlyphs" textLength="14" x="394.5" y="221.312">no</text><rect fill="#FEFECE" filter="url(#f1tw2eox0bz2wf)" height="33.9688" rx="12.5" ry="12.5" style="stroke: #A80036; stroke-width: 1.5;" width="81" x="85" y="245.9063"/><text fill="#000000" font-family="sans-serif" font-size="12" lengthAdjust="spacingAndGlyphs" textLength="61" x="95" y="267.0449">Run cell 3</text><rect fill="#FEFECE" filter="url(#f1tw2eox0bz2wf)" height="33.9688" rx="12.5" ry="12.5" style="stroke: #A80036; stroke-width: 1.5;" width="225" x="13" y="299.875"/><text fill="#000000" font-family="sans-serif" font-size="12" lengthAdjust="spacingAndGlyphs" textLength="205" x="23" y="321.0137">Provide start time and end times</text><rect fill="#FEFECE" filter="url(#f1tw2eox0bz2wf)" height="33.9688" rx="12.5" ry="12.5" style="stroke: #A80036; stroke-width: 1.5;" width="81" x="85" y="353.8438"/><text fill="#000000" font-family="sans-serif" font-size="12" lengthAdjust="spacingAndGlyphs" textLength="61" x="95" y="374.9824">Run cell 4</text><rect fill="#FEFECE" filter="url(#f1tw2eox0bz2wf)" height="33.9688" rx="12.5" ry="12.5" style="stroke: #A80036; stroke-width: 1.5;" width="217" x="17" y="407.8125"/><text fill="#000000" font-family="sans-serif" font-size="12" lengthAdjust="spacingAndGlyphs" textLength="197" x="27" y="428.9512">Select units for timeseries data</text><rect fill="#FEFECE" filter="url(#f1tw2eox0bz2wf)" height="33.9688" rx="12.5" ry="12.5" style="stroke: #A80036; stroke-width: 1.5;" width="81" x="85" y="461.7813"/><text fill="#000000" font-family="sans-serif" font-size="12" lengthAdjust="spacingAndGlyphs" textLength="61" x="95" y="482.9199">Run cell 5</text><rect fill="#FEFECE" filter="url(#f1tw2eox0bz2wf)" height="33.9688" rx="12.5" ry="12.5" style="stroke: #A80036; stroke-width: 1.5;" width="168" x="41.5" y="515.75"/><text fill="#000000" font-family="sans-serif" font-size="12" lengthAdjust="spacingAndGlyphs" textLength="148" x="51.5" y="536.8887">Provide desired options</text><rect fill="#FEFECE" filter="url(#f1tw2eox0bz2wf)" height="33.9688" rx="12.5" ry="12.5" style="stroke: #A80036; stroke-width: 1.5;" width="81" x="85" y="569.7188"/><text fill="#000000" font-family="sans-serif" font-size="12" lengthAdjust="spacingAndGlyphs" textLength="61" x="95" y="590.8574">Run cell 6</text><rect fill="#FEFECE" filter="url(#f1tw2eox0bz2wf)" height="33.9688" rx="12.5" ry="12.5" style="stroke: #A80036; stroke-width: 1.5;" width="171" x="40" y="623.6875"/><text fill="#000000" font-family="sans-serif" font-size="12" lengthAdjust="spacingAndGlyphs" textLength="151" x="50" y="644.8262">Provide desired statistic</text><rect fill="#FEFECE" filter="url(#f1tw2eox0bz2wf)" height="33.9688" rx="12.5" ry="12.5" style="stroke: #A80036; stroke-width: 1.5;" width="81" x="85" y="677.6563"/><text fill="#000000" font-family="sans-serif" font-size="12" lengthAdjust="spacingAndGlyphs" textLength="61" x="95" y="698.7949">Run cell 7</text><rect fill="#FEFECE" filter="url(#f1tw2eox0bz2wf)" height="33.9688" rx="12.5" ry="12.5" style="stroke: #A80036; stroke-width: 1.5;" width="231" x="10" y="731.625"/><text fill="#000000" font-family="sans-serif" font-size="12" lengthAdjust="spacingAndGlyphs" textLength="211" x="20" y="752.7637">Provide data visualisation options</text><rect fill="#FEFECE" filter="url(#f1tw2eox0bz2wf)" height="33.9688" rx="12.5" ry="12.5" style="stroke: #A80036; stroke-width: 1.5;" width="81" x="85" y="785.5938"/><text fill="#000000" font-family="sans-serif" font-size="12" lengthAdjust="spacingAndGlyphs" textLength="61" x="95" y="806.7324">Run cell 8</text><rect fill="#FEFECE" filter="url(#f1tw2eox0bz2wf)" height="33.9688" rx="12.5" ry="12.5" style="stroke: #A80036; stroke-width: 1.5;" width="167" x="42" y="839.5625"/><text fill="#000000" font-family="sans-serif" font-size="12" lengthAdjust="spacingAndGlyphs" textLength="147" x="52" y="860.7012">View data visualizations</text><ellipse cx="125.5" cy="904.5313" fill="#FFFFFF" filter="url(#f1tw2eox0bz2wf)" rx="11" ry="11" style="stroke: #000000; stroke-width: 1.0;"/><ellipse cx="125.5" cy="904.5313" fill="#000000" rx="6" ry="6" style="stroke: #7F7F7F; stroke-width: 1.0;"/><rect fill="#FEFECE" filter="url(#f1tw2eox0bz2wf)" height="33.9688" rx="12.5" ry="12.5" style="stroke: #A80036; stroke-width: 1.5;" width="81" x="435" y="245.9063"/><text fill="#000000" font-family="sans-serif" font-size="12" lengthAdjust="spacingAndGlyphs" textLength="61" x="445" y="267.0449">Run cell 4</text><rect fill="#FEFECE" filter="url(#f1tw2eox0bz2wf)" height="33.9688" rx="12.5" ry="12.5" style="stroke: #A80036; stroke-width: 1.5;" width="429" x="261" y="299.875"/><text fill="#000000" font-family="sans-serif" font-size="12" lengthAdjust="spacingAndGlyphs" textLength="409" x="271" y="321.0137">Provide start time, end times and select units for timeseries data</text><rect fill="#FEFECE" filter="url(#f1tw2eox0bz2wf)" height="33.9688" rx="12.5" ry="12.5" style="stroke: #A80036; stroke-width: 1.5;" width="81" x="435" y="353.8438"/><text fill="#000000" font-family="sans-serif" font-size="12" lengthAdjust="spacingAndGlyphs" textLength="61" x="445" y="374.9824">Run cell 5</text><rect fill="#FEFECE" filter="url(#f1tw2eox0bz2wf)" height="33.9688" rx="12.5" ry="12.5" style="stroke: #A80036; stroke-width: 1.5;" width="168" x="391.5" y="407.8125"/><text fill="#000000" font-family="sans-serif" font-size="12" lengthAdjust="spacingAndGlyphs" textLength="148" x="401.5" y="428.9512">Provide desired options</text><rect fill="#FEFECE" filter="url(#f1tw2eox0bz2wf)" height="33.9688" rx="12.5" ry="12.5" style="stroke: #A80036; stroke-width: 1.5;" width="81" x="435" y="461.7813"/><text fill="#000000" font-family="sans-serif" font-size="12" lengthAdjust="spacingAndGlyphs" textLength="61" x="445" y="482.9199">Run cell 6</text><rect fill="#FEFECE" filter="url(#f1tw2eox0bz2wf)" height="33.9688" rx="12.5" ry="12.5" style="stroke: #A80036; stroke-width: 1.5;" width="171" x="390" y="515.75"/><text fill="#000000" font-family="sans-serif" font-size="12" lengthAdjust="spacingAndGlyphs" textLength="151" x="400" y="536.8887">Provide desired statistic</text><rect fill="#FEFECE" filter="url(#f1tw2eox0bz2wf)" height="33.9688" rx="12.5" ry="12.5" style="stroke: #A80036; stroke-width: 1.5;" width="81" x="435" y="569.7188"/><text fill="#000000" font-family="sans-serif" font-size="12" lengthAdjust="spacingAndGlyphs" textLength="61" x="445" y="590.8574">Run cell 7</text><rect fill="#FEFECE" filter="url(#f1tw2eox0bz2wf)" height="33.9688" rx="12.5" ry="12.5" style="stroke: #A80036; stroke-width: 1.5;" width="231" x="360" y="623.6875"/><text fill="#000000" font-family="sans-serif" font-size="12" lengthAdjust="spacingAndGlyphs" textLength="211" x="370" y="644.8262">Provide data visualisation options</text><rect fill="#FEFECE" filter="url(#f1tw2eox0bz2wf)" height="33.9688" rx="12.5" ry="12.5" style="stroke: #A80036; stroke-width: 1.5;" width="81" x="435" y="677.6563"/><text fill="#000000" font-family="sans-serif" font-size="12" lengthAdjust="spacingAndGlyphs" textLength="61" x="445" y="698.7949">Run cell 8</text><rect fill="#FEFECE" filter="url(#f1tw2eox0bz2wf)" height="33.9688" rx="12.5" ry="12.5" style="stroke: #A80036; stroke-width: 1.5;" width="167" x="392" y="731.625"/><text fill="#000000" font-family="sans-serif" font-size="12" lengthAdjust="spacingAndGlyphs" textLength="147" x="402" y="752.7637">View data visualizations</text><ellipse cx="475.5" cy="796.5938" fill="#FFFFFF" filter="url(#f1tw2eox0bz2wf)" rx="11" ry="11" style="stroke: #000000; stroke-width: 1.0;"/><ellipse cx="475.5" cy="796.5938" fill="#000000" rx="6" ry="6" style="stroke: #7F7F7F; stroke-width: 1.0;"/><line style="stroke: #A80036; stroke-width: 1.5;" x1="300.5" x2="300.5" y1="30" y2="50"/><polygon fill="#A80036" points="296.5,40,300.5,50,304.5,40,300.5,44" style="stroke: #A80036; stroke-width: 1.0;"/><line style="stroke: #A80036; stroke-width: 1.5;" x1="300.5" x2="300.5" y1="83.9688" y2="103.9688"/><polygon fill="#A80036" points="296.5,93.9688,300.5,103.9688,304.5,93.9688,300.5,97.9688" style="stroke: #A80036; stroke-width: 1.0;"/><line style="stroke: #A80036; stroke-width: 1.5;" x1="300.5" x2="300.5" y1="137.9375" y2="157.9375"/><polygon fill="#A80036" points="296.5,147.9375,300.5,157.9375,304.5,147.9375,300.5,151.9375" style="stroke: #A80036; stroke-width: 1.0;"/><line style="stroke: #A80036; stroke-width: 1.5;" x1="125.5" x2="125.5" y1="279.875" y2="299.875"/><polygon fill="#A80036" points="121.5,289.875,125.5,299.875,129.5,289.875,125.5,293.875" style="stroke: #A80036; stroke-width: 1.0;"/><line style="stroke: #A80036; stroke-width: 1.5;" x1="125.5" x2="125.5" y1="333.8438" y2="353.8438"/><polygon fill="#A80036" points="121.5,343.8438,125.5,353.8438,129.5,343.8438,125.5,347.8438" style="stroke: #A80036; stroke-width: 1.0;"/><line style="stroke: #A80036; stroke-width: 1.5;" x1="125.5" x2="125.5" y1="387.8125" y2="407.8125"/><polygon fill="#A80036" points="121.5,397.8125,125.5,407.8125,129.5,397.8125,125.5,401.8125" style="stroke: #A80036; stroke-width: 1.0;"/><line style="stroke: #A80036; stroke-width: 1.5;" x1="125.5" x2="125.5" y1="441.7813" y2="461.7813"/><polygon fill="#A80036" points="121.5,451.7813,125.5,461.7813,129.5,451.7813,125.5,455.7813" style="stroke: #A80036; stroke-width: 1.0;"/><line style="stroke: #A80036; stroke-width: 1.5;" x1="125.5" x2="125.5" y1="495.75" y2="515.75"/><polygon fill="#A80036" points="121.5,505.75,125.5,515.75,129.5,505.75,125.5,509.75" style="stroke: #A80036; stroke-width: 1.0;"/><line style="stroke: #A80036; stroke-width: 1.5;" x1="125.5" x2="125.5" y1="549.7188" y2="569.7188"/><polygon fill="#A80036" points="121.5,559.7188,125.5,569.7188,129.5,559.7188,125.5,563.7188" style="stroke: #A80036; stroke-width: 1.0;"/><line style="stroke: #A80036; stroke-width: 1.5;" x1="125.5" x2="125.5" y1="603.6875" y2="623.6875"/><polygon fill="#A80036" points="121.5,613.6875,125.5,623.6875,129.5,613.6875,125.5,617.6875" style="stroke: #A80036; stroke-width: 1.0;"/><line style="stroke: #A80036; stroke-width: 1.5;" x1="125.5" x2="125.5" y1="657.6563" y2="677.6563"/><polygon fill="#A80036" points="121.5,667.6563,125.5,677.6563,129.5,667.6563,125.5,671.6563" style="stroke: #A80036; stroke-width: 1.0;"/><line style="stroke: #A80036; stroke-width: 1.5;" x1="125.5" x2="125.5" y1="711.625" y2="731.625"/><polygon fill="#A80036" points="121.5,721.625,125.5,731.625,129.5,721.625,125.5,725.625" style="stroke: #A80036; stroke-width: 1.0;"/><line style="stroke: #A80036; stroke-width: 1.5;" x1="125.5" x2="125.5" y1="765.5938" y2="785.5938"/><polygon fill="#A80036" points="121.5,775.5938,125.5,785.5938,129.5,775.5938,125.5,779.5938" style="stroke: #A80036; stroke-width: 1.0;"/><line style="stroke: #A80036; stroke-width: 1.5;" x1="125.5" x2="125.5" y1="819.5625" y2="839.5625"/><polygon fill="#A80036" points="121.5,829.5625,125.5,839.5625,129.5,829.5625,125.5,833.5625" style="stroke: #A80036; stroke-width: 1.0;"/><line style="stroke: #A80036; stroke-width: 1.5;" x1="125.5" x2="125.5" y1="873.5313" y2="893.5313"/><polygon fill="#A80036" points="121.5,883.5313,125.5,893.5313,129.5,883.5313,125.5,887.5313" style="stroke: #A80036; stroke-width: 1.0;"/><line style="stroke: #A80036; stroke-width: 1.5;" x1="475.5" x2="475.5" y1="279.875" y2="299.875"/><polygon fill="#A80036" points="471.5,289.875,475.5,299.875,479.5,289.875,475.5,293.875" style="stroke: #A80036; stroke-width: 1.0;"/><line style="stroke: #A80036; stroke-width: 1.5;" x1="475.5" x2="475.5" y1="333.8438" y2="353.8438"/><polygon fill="#A80036" points="471.5,343.8438,475.5,353.8438,479.5,343.8438,475.5,347.8438" style="stroke: #A80036; stroke-width: 1.0;"/><line style="stroke: #A80036; stroke-width: 1.5;" x1="475.5" x2="475.5" y1="387.8125" y2="407.8125"/><polygon fill="#A80036" points="471.5,397.8125,475.5,407.8125,479.5,397.8125,475.5,401.8125" style="stroke: #A80036; stroke-width: 1.0;"/><line style="stroke: #A80036; stroke-width: 1.5;" x1="475.5" x2="475.5" y1="441.7813" y2="461.7813"/><polygon fill="#A80036" points="471.5,451.7813,475.5,461.7813,479.5,451.7813,475.5,455.7813" style="stroke: #A80036; stroke-width: 1.0;"/><line style="stroke: #A80036; stroke-width: 1.5;" x1="475.5" x2="475.5" y1="495.75" y2="515.75"/><polygon fill="#A80036" points="471.5,505.75,475.5,515.75,479.5,505.75,475.5,509.75" style="stroke: #A80036; stroke-width: 1.0;"/><line style="stroke: #A80036; stroke-width: 1.5;" x1="475.5" x2="475.5" y1="549.7188" y2="569.7188"/><polygon fill="#A80036" points="471.5,559.7188,475.5,569.7188,479.5,559.7188,475.5,563.7188" style="stroke: #A80036; stroke-width: 1.0;"/><line style="stroke: #A80036; stroke-width: 1.5;" x1="475.5" x2="475.5" y1="603.6875" y2="623.6875"/><polygon fill="#A80036" points="471.5,613.6875,475.5,623.6875,479.5,613.6875,475.5,617.6875" style="stroke: #A80036; stroke-width: 1.0;"/><line style="stroke: #A80036; stroke-width: 1.5;" x1="475.5" x2="475.5" y1="657.6563" y2="677.6563"/><polygon fill="#A80036" points="471.5,667.6563,475.5,677.6563,479.5,667.6563,475.5,671.6563" style="stroke: #A80036; stroke-width: 1.0;"/><line style="stroke: #A80036; stroke-width: 1.5;" x1="475.5" x2="475.5" y1="711.625" y2="731.625"/><polygon fill="#A80036" points="471.5,721.625,475.5,731.625,479.5,721.625,475.5,725.625" style="stroke: #A80036; stroke-width: 1.0;"/><line style="stroke: #A80036; stroke-width: 1.5;" x1="475.5" x2="475.5" y1="765.5938" y2="785.5938"/><polygon fill="#A80036" points="471.5,775.5938,475.5,785.5938,479.5,775.5938,475.5,779.5938" style="stroke: #A80036; stroke-width: 1.0;"/><line style="stroke: #A80036; stroke-width: 1.5;" x1="206.5" x2="125.5" y1="223.9063" y2="223.9063"/><line style="stroke: #A80036; stroke-width: 1.5;" x1="125.5" x2="125.5" y1="223.9063" y2="245.9063"/><polygon fill="#A80036" points="121.5,235.9063,125.5,245.9063,129.5,235.9063,125.5,239.9063" style="stroke: #A80036; stroke-width: 1.0;"/><line style="stroke: #A80036; stroke-width: 1.5;" x1="394.5" x2="475.5" y1="223.9063" y2="223.9063"/><line style="stroke: #A80036; stroke-width: 1.5;" x1="475.5" x2="475.5" y1="223.9063" y2="245.9063"/><polygon fill="#A80036" points="471.5,235.9063,475.5,245.9063,479.5,235.9063,475.5,239.9063" style="stroke: #A80036; stroke-width: 1.0;"/><line style="stroke: #A80036; stroke-width: 1.5;" x1="300.5" x2="300.5" y1="191.9063" y2="211.9063"/><polygon fill="#A80036" points="296.5,201.9063,300.5,211.9063,304.5,201.9063,300.5,205.9063" style="stroke: #A80036; stroke-width: 1.0;"/><!--MD5=[45ee4fc3ed655814076e95027cd53f92]
@startuml
start
:Run cell 1;
:Provide directory path in 'Path' field;
:Run cell 2;

if (Data preprocessing needed?) then (yes)
    :Run cell 3;
    :Provide start time and end times;
    :Run cell 4;
    :Select units for timeseries data;
    :Run cell 5;
    :Provide desired options;
    :Run cell 6;
    :Provide desired statistic;
    :Run cell 7;
    :Provide data visualisation options;
    :Run cell 8;
    :View data visualizations;
    stop
else (no)
    :Run cell 4;
    :Provide start time, end times and select units for timeseries data;
    :Run cell 5;
    :Provide desired options;
    :Run cell 6;
    :Provide desired statistic;
    :Run cell 7;
    :Provide data visualisation options;
    :Run cell 8;
    :View data visualizations;
    stop
endif
@enduml

PlantUML version 1.2020.08(Sun Apr 26 14:08:22 UTC 2020)
(GPL source distribution)
Java Runtime: OpenJDK Runtime Environment
JVM: OpenJDK 64-Bit Server VM
Java Version: 1.8.0_252-heroku-b09
Operating System: Linux
Default Encoding: UTF-8
Language: en
Country: US
--></g></svg>